<?xml version="1.0" encoding="utf-8"?>
<!-- Generator: Adobe Illustrator 24.1.2, SVG Export Plug-In . SVG Version: 6.00 Build 0)  -->
<svg version="1.1" id="Warstwa_3" xmlns="http://www.w3.org/2000/svg" xmlns:xlink="http://www.w3.org/1999/xlink" x="0px" y="0px"
	 viewBox="0 0 430 430" style="enable-background:new 0 0 430 430;" xml:space="preserve">
<style type="text/css">
	.st0{fill:#08A88A;}
	.st1{fill:#121331;}
	.st2{fill:none;}
	.st3{fill-opacity:0;}
</style>
<g>
	<path class="st1" d="M278.93,352.16c-8.66,0-18.12-1.53-28.12-4.62c-23.14-7.16-46.66-21.87-66.23-41.44l-60.81-60.81
		c-19.57-19.57-34.32-43.12-41.54-66.32c-7.52-24.16-6.02-45.28,4.23-59.47c8.16-11.29,16.67-21.56,23.96-28.9
		c11.21-11.28,16.41-12.73,19.7-12.74c0,0,0.01,0,0.01,0c2.74,0,5.21,1.23,6.76,3.37l37.29,51.34c5.61,7.72-1.46,20.86-10.41,29.81
		c-6.77,6.77-7.66,13.33-6.72,14.27l95.82,95.82c1.67,0.08,7.21-1.81,13.2-7.79c8.57-8.57,21.33-16.57,29.07-10.92l54.21,39.53
		c1.98,1.44,3.12,3.72,3.12,6.24c0.01,3.23-1.54,8.04-13.09,19.22c-7.51,7.27-17.93,15.89-29.33,24.28
		C301.8,349.09,291.17,352.16,278.93,352.16z M128.77,91c-4.78,2.99-16.38,13.63-32.33,35.71c-16.78,23.23-0.28,73.54,36.04,109.86
		l60.81,60.81c36.3,36.3,86.43,52.66,109.46,35.72c20.13-14.8,32.37-26.73,36.24-32.12l-50.38-36.74
		c-2.12,0.32-7.76,3.09-13.83,9.15c-4.57,4.57-9.77,8.1-14.65,9.94c-8.74,3.29-13.54,0.28-15.63-1.81l-96.17-96.17
		c-7.12-7.12-4.23-20.74,6.72-31.69c6.45-6.45,8.79-12.45,8.83-14.3L128.77,91z M164.21,139.8L164.21,139.8L164.21,139.8z"/>
</g>
</svg>
