<?xml version="1.0" encoding="utf-8"?>
<!-- Generator: Adobe Illustrator 24.1.2, SVG Export Plug-In . SVG Version: 6.00 Build 0)  -->
<svg version="1.1" id="Warstwa_3" xmlns="http://www.w3.org/2000/svg" xmlns:xlink="http://www.w3.org/1999/xlink" x="0px" y="0px"
	 viewBox="0 0 430 430" style="enable-background:new 0 0 430 430;" xml:space="preserve">
<style type="text/css">
	.st0{fill:#08A88A;}
	.st1{fill:#121331;}
	.st2{fill:none;}
	.st3{fill:#08A88A;fill-opacity:0;}
</style>
<g>
	<path class="st0" d="M283.17,141.92c-3.48,0-6.3-2.82-6.3-6.3V60.07c0-4.32-3.51-7.83-7.83-7.83c-4.32,0-7.83,3.51-7.83,7.83v75.56
		c0,3.48-2.82,6.3-6.3,6.3s-6.3-2.82-6.3-6.3V60.07c0-11.27,9.17-20.43,20.43-20.43c11.27,0,20.43,9.17,20.43,20.43v75.56
		C289.47,139.1,286.65,141.92,283.17,141.92z M174.62,140.24c-3.48,0-6.3-2.82-6.3-6.3V58.39c0-4.32-3.51-7.83-7.83-7.83
		c-4.32,0-7.83,3.51-7.83,7.83v75.56c0,3.48-2.82,6.3-6.3,6.3s-6.3-2.82-6.3-6.3V58.39c0-11.27,9.17-20.43,20.43-20.43
		c11.27,0,20.43,9.17,20.43,20.43v75.56C180.92,137.42,178.1,140.24,174.62,140.24z"/>
	<path class="st1" d="M214.5,392.05c-0.01,0-0.02,0-0.03,0c-3.48-0.02-6.29-2.85-6.27-6.33l0.23-51.76h-3.56
		c-11.93,0-21.64-9.71-21.64-21.64c0-0.04,0-0.07,0-0.11l-3.66-0.01c-39.25,0-71.19-31.94-71.19-71.21v-66.92l-6.39-0.01
		c-11.92,0-21.63-9.71-21.63-21.64c0-11.93,9.71-21.64,21.64-21.64l226.01,0.34c11.92,0,21.63,9.71,21.63,21.64
		S339.93,174.4,328,174.4c0,0-0.01,0-0.01,0l-6.85-0.01v66.76c0,39.26-31.94,71.21-71.21,71.21l-3.64-0.01
		c-0.02,11.92-9.72,21.61-21.64,21.61h-3.62l-0.23,51.82C220.79,389.24,217.97,392.05,214.5,392.05z M195.83,312.24
		c0,0.03,0,0.05,0,0.08c0,4.98,4.05,9.04,9.04,9.04h19.78c4.98,0,9.04-4.05,9.04-9.04L195.83,312.24z M120.98,174.09v66.9
		c0,32.32,26.29,58.61,58.61,58.61l70.36,0.16c32.3,0,58.59-26.29,58.59-58.61v-66.77L120.98,174.09z M101.99,143.39
		c-4.97,0-9.03,4.05-9.03,9.04c0,4.98,4.05,9.04,9.04,9.04l226.01,0.34c4.98,0,9.03-4.06,9.03-9.04c0-4.98-4.05-9.04-9.04-9.04
		L101.99,143.39z"/>
</g>
</svg>
