<?xml version="1.0" encoding="utf-8"?>
<!-- Generator: Adobe Illustrator 24.1.2, SVG Export Plug-In . SVG Version: 6.00 Build 0)  -->
<svg version="1.1" id="Warstwa_1" xmlns="http://www.w3.org/2000/svg" xmlns:xlink="http://www.w3.org/1999/xlink" x="0px" y="0px"
	 viewBox="0 0 430 430" style="enable-background:new 0 0 430 430;" xml:space="preserve">
<style type="text/css">
	.st0{fill:#121331;}
	.st1{fill:#08A88A;}
	.st2{fill:#08A789;}
</style>
<g>
	<path class="st1" d="M314.69,128.41c-3.31,0-6-2.69-6-6v-18.06h-26.64c-3.31,0-6-2.69-6-6s2.69-6,6-6h32.64c3.31,0,6,2.69,6,6
		v24.06C320.69,125.72,318.01,128.41,314.69,128.41z"/>
	<path class="st0" d="M297.03,236.97c0.49-3.31,0.74-6.67,0.74-10.05c0-6.78-2.64-13.15-7.44-17.94c-0.71-0.7-1.45-1.36-2.22-1.97
		V96.48c0-0.78-0.02-1.56-0.06-2.37C286.8,69.03,266.13,49.38,241,49.38h-74.92c-25.14,0-45.81,19.65-47.05,44.77
		c-0.03,0.78-0.06,1.56-0.06,2.33v110.79c-5.88,4.65-9.66,11.83-9.66,19.88v0.74c0,3.05,0.21,6.06,0.6,9.03
		c0.02,0.24,0.05,0.49,0.1,0.72c2.46,17.75,11.57,33.85,25.88,45.17c14,11.08,22.02,27.66,22.02,45.51v46.29c0,3.31,2.69,6,6,6
		h76.72c3.31,0,6-2.69,6-6v-45.3c0-18.14,8.66-35.48,23.2-46.42c14.59-10.97,24.27-27.34,27.09-45.17
		C296.96,237.48,297,237.23,297.03,236.97z M121.31,227.9v-0.74c0-7.35,5.98-13.33,13.32-13.35l137.76-0.24c0.01,0,0.02,0,0.02,0
		c3.56,0,6.91,1.38,9.43,3.9c2.53,2.52,3.92,5.88,3.92,9.45c0,1.17-0.04,2.34-0.11,3.5H121.38
		C121.34,229.58,121.31,228.74,121.31,227.9z M166.08,61.38H241c17.28,0,31.72,12.46,34.58,29.03H131.49
		C134.37,73.83,148.8,61.38,166.08,61.38z M130.96,102.41H276.1v99.41c-1.22-0.18-2.47-0.26-3.73-0.26l-137.76,0.24
		c-1.24,0-2.45,0.1-3.64,0.27V102.41z M262.56,273.33c-17.5,13.16-27.95,34.08-27.95,55.98v39.3H169.9v-40.29
		c0-21.54-9.69-41.56-26.57-54.92c-10.1-7.99-17.07-18.86-20.18-31h160.46C280.2,254.61,272.87,265.58,262.56,273.33z"/>
</g>
</svg>
