<?xml version="1.0" encoding="iso-8859-1"?>
<!-- Uploaded to: SVG Repo, www.svgrepo.com, Transformed by: SVG Repo Tools -->
<svg fill="#000000" height="800px" width="800px" version="1.1" id="Layer_1" xmlns="http://www.w3.org/2000/svg" xmlns:xlink="http://www.w3.org/1999/xlink" 
	 viewBox="0 0 511.997 511.997" xml:space="preserve">
<g>
	<g>
		<path d="M506.434,164.132C439.54,97.238,350.6,60.398,255.999,60.398S72.458,97.238,5.564,164.133L0,169.698l11.131,11.13
			l5.564-5.565C80.616,111.342,165.603,76.14,255.999,76.14c87.771,0,170.437,33.183,233.675,93.62l-27.835,27.837
			c-55.285-52.453-127.903-81.2-205.509-81.2c-0.418,0-0.85,0-1.271,0.002c-38.925,0.157-76.813,7.562-112.608,22.008
			c-36.992,14.93-69.94,36.692-97.931,64.682l-5.564,5.565l50.086,50.087l5.565-5.565c43.721-43.721,100.896-67.754,161.123-67.754
			c0.374,0,0.757,0.001,1.131,0.003c57.55,0.287,112.245,22.343,154.874,62.276l-27.848,27.848
			c-34.955-32.219-80.065-49.873-127.888-49.873c-50.454,0-97.888,19.648-133.565,55.325l-5.564,5.565l50.086,50.087l5.565-5.565
			c22.298-22.298,51.944-34.577,83.477-34.577c28.898,0,56.208,10.31,77.733,29.194l-27.922,27.921
			c-30.884-25.282-76.656-23.518-105.464,5.289l-5.564,5.566l11.131,11.129l5.564-5.565c24.549-24.55,64.495-24.549,89.043,0
			l5.565,5.565l50.088-50.087l-5.565-5.565c-50.3-50.298-131.013-52.099-183.49-5.403l-27.865-27.865
			c31.974-29.253,73.131-45.272,116.745-45.272c46.25,0,89.732,18.011,122.435,50.714l5.565,5.565l50.088-50.087l-5.565-5.565
			c-46.342-46.342-107.277-72.04-171.583-72.361c-0.408-0.002-0.803-0.003-1.211-0.003c-61.855,0-120.683,23.669-166.602,66.883
			L61.294,208.73c25.237-23.858,54.485-42.586,87.049-55.729c33.935-13.696,69.859-20.715,106.78-20.864
			c0.407-0.002,0.799-0.003,1.204-0.003c76.062,0,147.063,29.125,200.018,82.083l5.565,5.565l50.087-50.087L506.434,164.132z"/>
	</g>
</g>
<g>
	<g>
		<path d="M272.695,397.87c-12.274-12.274-32.247-12.273-44.522,0.001c-12.274,12.275-12.274,32.247,0,44.522
			c6.137,6.137,14.199,9.206,22.26,9.206c8.063,0,16.124-3.069,22.261-9.206C284.97,430.119,284.97,410.146,272.695,397.87z
			 M261.565,431.263c-6.135,6.138-16.123,6.139-22.26,0c-6.137-6.137-6.137-16.123,0-22.26c3.069-3.069,7.1-4.604,11.131-4.604
			c4.031,0,8.062,1.535,11.13,4.603C267.702,415.14,267.702,425.126,261.565,431.263z"/>
	</g>
</g>
<g>
</g>
<g>
</g>
<g>
</g>
<g>
</g>
<g>
</g>
<g>
</g>
<g>
</g>
<g>
</g>
<g>
</g>
<g>
</g>
<g>
</g>
<g>
</g>
<g>
</g>
<g>
</g>
<g>
</g>
</svg>